<svg width="57" height="30" viewBox="0 0 57 30" fill="none" xmlns="http://www.w3.org/2000/svg">
<path d="M1.69947 7.60224V11.8359H0.273385V1.02144H4.26197C5.44543 1.02144 6.37139 1.3235 7.03987 1.9276C7.7133 2.53171 8.05002 3.33141 8.05002 4.3267C8.05002 5.37646 7.72073 6.18606 7.06215 6.7555C6.40853 7.32 5.47018 7.60224 4.24712 7.60224H1.69947ZM1.69947 6.43612H4.26197C5.02453 6.43612 5.60883 6.25786 6.01487 5.90134C6.42091 5.53986 6.62393 5.01993 6.62393 4.34155C6.62393 3.69783 6.42091 3.18286 6.01487 2.79663C5.60883 2.41039 5.05177 2.20985 4.34367 2.195H1.69947V6.43612ZM12.8853 11.9845C11.796 11.9845 10.9096 11.628 10.2263 10.9149C9.54295 10.1969 9.20128 9.23878 9.20128 8.04047V7.78793C9.20128 6.99071 9.35231 6.28014 9.65436 5.65623C9.96137 5.02736 10.3872 4.53715 10.9319 4.18557C11.4815 3.82905 12.0757 3.65079 12.7145 3.65079C13.7593 3.65079 14.5714 3.99493 15.1507 4.68322C15.7301 5.3715 16.0198 6.35689 16.0198 7.63938V8.2113H10.5754C10.5952 9.00357 10.8254 9.64481 11.2661 10.135C11.7118 10.6203 12.2763 10.8629 12.9596 10.8629C13.4449 10.8629 13.8559 10.7639 14.1926 10.5658C14.5293 10.3678 14.8239 10.1053 15.0765 9.77851L15.9158 10.4321C15.2423 11.467 14.2322 11.9845 12.8853 11.9845ZM12.7145 4.77978C12.1599 4.77978 11.6945 4.9828 11.3181 5.38884C10.9418 5.78992 10.7091 6.35442 10.6199 7.08231H14.6457V6.97833C14.6061 6.28014 14.4179 5.74041 14.0812 5.35913C13.7445 4.97289 13.2889 4.77978 12.7145 4.77978ZM19.481 1.85333V3.79934H20.9814V4.86148H19.481V9.84536C19.481 10.1672 19.5478 10.4099 19.6815 10.5733C19.8152 10.7317 20.043 10.8109 20.3649 10.8109C20.5233 10.8109 20.7412 10.7812 21.0185 10.7218V11.8359C20.657 11.935 20.3055 11.9845 19.9638 11.9845C19.3498 11.9845 18.8868 11.7988 18.5748 11.4274C18.2629 11.056 18.1069 10.5287 18.1069 9.84536V4.86148H16.6437V3.79934H18.1069V1.85333H19.481ZM25.9949 7.01547C24.7719 6.6639 23.8806 6.2331 23.321 5.72308C22.7664 5.2081 22.4891 4.57428 22.4891 3.82163C22.4891 2.96993 22.8283 2.26679 23.5067 1.71221C24.1901 1.15266 25.0764 0.872894 26.1658 0.872894C26.9085 0.872894 27.5696 1.01649 28.1489 1.30369C28.7332 1.59089 29.1838 1.98702 29.5007 2.4921C29.8226 2.99717 29.9835 3.54928 29.9835 4.14844H28.55C28.55 3.49481 28.342 2.98231 27.9261 2.61094C27.5102 2.23461 26.9234 2.04644 26.1658 2.04644C25.4626 2.04644 24.913 2.20242 24.5169 2.51438C24.1257 2.82138 23.9301 3.24971 23.9301 3.79934C23.9301 4.24004 24.1158 4.6139 24.4872 4.9209C24.8635 5.22295 25.4998 5.50025 26.396 5.75279C27.2972 6.00532 28.0004 6.28509 28.5055 6.5921C29.0155 6.89415 29.3918 7.2482 29.6344 7.65423C29.882 8.06027 30.0058 8.53811 30.0058 9.08775C30.0058 9.9642 29.6641 10.6673 28.9808 11.1972C28.2975 11.722 27.3839 11.9845 26.2401 11.9845C25.4973 11.9845 24.8041 11.8434 24.1603 11.5611C23.5166 11.2739 23.019 10.8827 22.6674 10.3876C22.3208 9.8924 22.1475 9.33038 22.1475 8.70152H23.581C23.581 9.35514 23.8212 9.87259 24.3015 10.2539C24.7867 10.6302 25.4329 10.8184 26.2401 10.8184C26.9927 10.8184 27.5696 10.6649 27.9707 10.3579C28.3718 10.0509 28.5723 9.63244 28.5723 9.1026C28.5723 8.57277 28.3866 8.16426 28.0152 7.87706C27.6439 7.58491 26.9704 7.29771 25.9949 7.01547ZM33.4893 1.85333V3.79934H34.9897V4.86148H33.4893V9.84536C33.4893 10.1672 33.5562 10.4099 33.6899 10.5733C33.8236 10.7317 34.0513 10.8109 34.3732 10.8109C34.5317 10.8109 34.7495 10.7812 35.0268 10.7218V11.8359C34.6654 11.935 34.3138 11.9845 33.9721 11.9845C33.3581 11.9845 32.8951 11.7988 32.5832 11.4274C32.2712 11.056 32.1152 10.5287 32.1152 9.84536V4.86148H30.652V3.79934H32.1152V1.85333H33.4893ZM36.089 7.74336C36.089 6.95605 36.2425 6.24795 36.5495 5.61909C36.8614 4.99022 37.2922 4.50496 37.8419 4.16329C38.3965 3.82163 39.0278 3.65079 39.7359 3.65079C40.8302 3.65079 41.7141 4.0296 42.3875 4.78721C43.0659 5.54481 43.4051 6.55248 43.4051 7.81021V7.90677C43.4051 8.68914 43.2541 9.39228 42.952 10.0162C42.6549 10.6352 42.2266 11.1179 41.667 11.4646C41.1125 11.8112 40.4737 11.9845 39.7507 11.9845C38.6614 11.9845 37.7775 11.6057 37.0991 10.8481C36.4257 10.0905 36.089 9.08775 36.089 7.83992V7.74336ZM37.4705 7.90677C37.4705 8.79808 37.676 9.51359 38.087 10.0533C38.5029 10.5931 39.0575 10.8629 39.7507 10.8629C40.4489 10.8629 41.0035 10.5906 41.4145 10.0459C41.8255 9.49626 42.031 8.72875 42.031 7.74336C42.031 6.86196 41.8205 6.14892 41.3997 5.60423C40.9837 5.0546 40.4291 4.77978 39.7359 4.77978C39.0575 4.77978 38.5103 5.04965 38.0944 5.58938C37.6785 6.12911 37.4705 6.90158 37.4705 7.90677ZM49.0129 5.03231C48.8049 4.99765 48.5796 4.98032 48.337 4.98032C47.4358 4.98032 46.8242 5.36408 46.5024 6.13159V11.8359H45.1283V3.79934H46.4652L46.4875 4.72779C46.9381 4.00979 47.5769 3.65079 48.4038 3.65079C48.6712 3.65079 48.8742 3.68545 49.0129 3.75478V5.03231ZM53.046 9.82308L54.9178 3.79934H56.3884L53.1574 13.0763C52.6573 14.4133 51.8626 15.0818 50.7732 15.0818L50.5132 15.0595L50.0007 14.9629V13.8488L50.3721 13.8785C50.8376 13.8785 51.199 13.7844 51.4565 13.5963C51.719 13.4081 51.9344 13.064 52.1027 12.5638L52.4073 11.7468L49.5402 3.79934H51.0406L53.046 9.82308ZM8.01288 25.7434C8.01288 24.956 8.16638 24.248 8.47339 23.6191C8.78534 22.9902 9.21614 22.505 9.76578 22.1633C10.3204 21.8216 10.9517 21.6508 11.6598 21.6508C12.7541 21.6508 13.638 22.0296 14.3114 22.7872C14.9898 23.5448 15.329 24.5525 15.329 25.8102V25.9068C15.329 26.6891 15.178 27.3923 14.8759 28.0162C14.5788 28.6352 14.1505 29.1179 13.591 29.4646C13.0364 29.8112 12.3976 29.9845 11.6747 29.9845C10.5853 29.9845 9.70141 29.6057 9.02302 28.8481C8.34959 28.0905 8.01288 27.0877 8.01288 25.8399V25.7434ZM9.3944 25.9068C9.3944 26.7981 9.5999 27.5136 10.0109 28.0533C10.4268 28.5931 10.9814 28.8629 11.6747 28.8629C12.3728 28.8629 12.9274 28.5906 13.3384 28.0459C13.7494 27.4963 13.9549 26.7288 13.9549 25.7434C13.9549 24.862 13.7445 24.1489 13.3236 23.6042C12.9076 23.0546 12.353 22.7798 11.6598 22.7798C10.9814 22.7798 10.4343 23.0496 10.0183 23.5894C9.60237 24.1291 9.3944 24.9016 9.3944 25.9068ZM18.352 21.7993L18.3966 22.8095C19.0106 22.037 19.8128 21.6508 20.8031 21.6508C22.5015 21.6508 23.3582 22.6089 23.373 24.5252V29.8359H21.9989V24.5178C21.994 23.9385 21.8603 23.5102 21.5978 23.2329C21.3404 22.9556 20.9368 22.8169 20.3872 22.8169C19.9415 22.8169 19.5503 22.9358 19.2136 23.1734C18.8769 23.4111 18.6145 23.7231 18.4263 24.1093V29.8359H17.0522V21.7993H18.352ZM26.9382 29.8359H25.5641V18.4272H26.9382V29.8359ZM30.6372 29.8359H29.2631V21.7993H30.6372V29.8359ZM29.1516 19.6676C29.1516 19.4448 29.2185 19.2566 29.3522 19.1031C29.4908 18.9496 29.6939 18.8729 29.9612 18.8729C30.2286 18.8729 30.4317 18.9496 30.5703 19.1031C30.709 19.2566 30.7783 19.4448 30.7783 19.6676C30.7783 19.8905 30.709 20.0762 30.5703 20.2247C30.4317 20.3733 30.2286 20.4475 29.9612 20.4475C29.6939 20.4475 29.4908 20.3733 29.3522 20.2247C29.2185 20.0762 29.1516 19.8905 29.1516 19.6676ZM34.143 21.7993L34.1875 22.8095C34.8015 22.037 35.6037 21.6508 36.594 21.6508C38.2925 21.6508 39.1491 22.6089 39.164 24.5252V29.8359H37.7899V24.5178C37.7849 23.9385 37.6512 23.5102 37.3888 23.2329C37.1313 22.9556 36.7277 22.8169 36.1781 22.8169C35.7324 22.8169 35.3413 22.9358 35.0045 23.1734C34.6678 23.4111 34.4054 23.7231 34.2172 24.1093V29.8359H32.8431V21.7993H34.143ZM44.5712 29.9845C43.4818 29.9845 42.5955 29.628 41.9122 28.9149C41.2288 28.1969 40.8872 27.2388 40.8872 26.0405V25.7879C40.8872 24.9907 41.0382 24.2801 41.3402 23.6562C41.6472 23.0274 42.0731 22.5371 42.6178 22.1856C43.1674 21.8291 43.7616 21.6508 44.4004 21.6508C45.4452 21.6508 46.2573 21.9949 46.8366 22.6832C47.416 23.3715 47.7056 24.3569 47.7056 25.6394V26.2113H42.2613C42.2811 27.0036 42.5113 27.6448 42.952 28.135C43.3977 28.6203 43.9622 28.8629 44.6455 28.8629C45.1308 28.8629 45.5417 28.7639 45.8785 28.5658C46.2152 28.3678 46.5098 28.1053 46.7623 27.7785L47.6016 28.4321C46.9282 29.467 45.9181 29.9845 44.5712 29.9845ZM44.4004 22.7798C43.8458 22.7798 43.3803 22.9828 43.004 23.3888C42.6277 23.7899 42.3949 24.3544 42.3058 25.0823H46.3315V24.9783C46.2919 24.2801 46.1038 23.7404 45.767 23.3591C45.4303 22.9729 44.9748 22.7798 44.4004 22.7798Z" fill="white"/>
<path d="M1.69947 7.60224V6.65152H0.748747V7.60224H1.69947ZM1.69947 11.8359V12.7867H2.6502V11.8359H1.69947ZM0.273385 11.8359H-0.67734V12.7867H0.273385V11.8359ZM0.273385 1.02144V0.0707197H-0.67734V1.02144H0.273385ZM7.03987 1.9276L6.40242 2.63298L6.40502 2.63531L7.03987 1.9276ZM7.06215 6.7555L7.68357 7.47503L7.68399 7.47467L7.06215 6.7555ZM1.69947 6.43612H0.748747V7.38684H1.69947V6.43612ZM6.01487 5.90134L6.64217 6.61577L6.64704 6.61144L6.01487 5.90134ZM4.34367 2.195L4.36362 1.24448L4.35365 1.24427H4.34367V2.195ZM1.69947 2.195V1.24427H0.748747V2.195H1.69947ZM0.748747 7.60224V11.8359H2.6502V7.60224H0.748747ZM1.69947 10.8852H0.273385V12.7867H1.69947V10.8852ZM1.22411 11.8359V1.02144H-0.67734V11.8359H1.22411ZM0.273385 1.97217H4.26197V0.0707197H0.273385V1.97217ZM4.26197 1.97217C5.28543 1.97217 5.95764 2.23101 6.40243 2.63297L7.67731 1.22224C6.78515 0.415983 5.60543 0.0707197 4.26197 0.0707197V1.97217ZM6.40502 2.63531C6.85596 3.03983 7.09929 3.57122 7.09929 4.3267H9.00074C9.00074 3.0916 8.57064 2.0236 7.67472 1.2199L6.40502 2.63531ZM7.09929 4.3267C7.09929 5.16253 6.84719 5.68453 6.44032 6.03634L7.68399 7.47467C8.59426 6.68759 9.00074 5.59038 9.00074 4.3267H7.09929ZM6.44074 6.03597C6.01963 6.39966 5.33595 6.65152 4.24712 6.65152V8.55297C5.60442 8.55297 6.79743 8.24033 7.68357 7.47503L6.44074 6.03597ZM4.24712 6.65152H1.69947V8.55297H4.24712V6.65152ZM1.69947 7.38684H4.26197V5.48539H1.69947V7.38684ZM4.26197 7.38684C5.16113 7.38684 6.00294 7.17701 6.64216 6.61575L5.38758 5.18692C5.21472 5.3387 4.88793 5.48539 4.26197 5.48539V7.38684ZM6.64704 6.61144C7.30417 6.02643 7.57465 5.21882 7.57465 4.34155H5.6732C5.6732 4.82105 5.53765 5.05329 5.38271 5.19123L6.64704 6.61144ZM7.57465 4.34155C7.57465 3.47978 7.29346 2.7007 6.67012 2.10777L5.35962 3.48548C5.54836 3.66502 5.6732 3.91589 5.6732 4.34155H7.57465ZM6.67012 2.10777C6.05048 1.51836 5.2438 1.26294 4.36362 1.24448L4.32373 3.14551C4.85974 3.15676 5.16718 3.30243 5.35962 3.48548L6.67012 2.10777ZM4.34367 1.24427H1.69947V3.14572H4.34367V1.24427ZM0.748747 2.195V6.43612H2.6502V2.195H0.748747ZM10.2263 10.9149L9.5376 11.5704L9.53987 11.5727L10.2263 10.9149ZM9.65436 5.65623L8.80001 5.23914L8.79865 5.24195L9.65436 5.65623ZM10.9319 4.18558L11.4475 4.98436L11.4493 4.9832L10.9319 4.18558ZM15.1507 4.68322L14.4234 5.29545L15.1507 4.68322ZM16.0198 8.2113V9.16202H16.9705V8.2113H16.0198ZM10.5754 8.2113V7.26058H9.60059L9.62495 8.23506L10.5754 8.2113ZM11.2661 10.135L10.5591 10.7707L10.5659 10.7781L11.2661 10.135ZM15.0765 9.77851L15.6606 9.02841L14.9077 8.44206L14.3242 9.19719L15.0765 9.77851ZM15.9158 10.4321L16.7126 10.9507L17.189 10.2186L16.4999 9.68203L15.9158 10.4321ZM11.3181 5.38884L12.0115 6.03937L12.0154 6.0351L11.3181 5.38884ZM10.6199 7.08231L9.67627 6.96676L9.5457 8.03304H10.6199V7.08231ZM14.6457 7.08231V8.03304H15.5964V7.08231H14.6457ZM14.6457 6.97833H15.5964V6.95138L15.5949 6.92447L14.6457 6.97833ZM14.0812 5.35913L13.3645 5.98389L13.3686 5.98845L14.0812 5.35913ZM12.8853 11.0338C12.0256 11.0338 11.3973 10.7628 10.9127 10.2571L9.53987 11.5727C10.422 12.4932 11.5663 12.9352 12.8853 12.9352V11.0338ZM10.915 10.2595C10.4337 9.75385 10.152 9.0488 10.152 8.04047H8.25056C8.25056 9.42875 8.65216 10.64 9.5376 11.5704L10.915 10.2595ZM10.152 8.04047V7.78793H8.25056V8.04047H10.152ZM10.152 7.78793C10.152 7.11266 10.2793 6.54718 10.5101 6.0705L8.79865 5.24195C8.42531 6.0131 8.25056 6.86876 8.25056 7.78793H10.152ZM10.5087 6.07331C10.746 5.58735 11.0599 5.2345 11.4475 4.98436L10.4163 3.38679C9.71449 3.83979 9.17678 4.46738 8.80001 5.23914L10.5087 6.07331ZM11.4493 4.9832C11.849 4.72389 12.2643 4.60152 12.7145 4.60152V2.70007C11.8872 2.70007 11.114 2.93422 10.4145 3.38795L11.4493 4.9832ZM12.7145 4.60152C13.5292 4.60152 14.0548 4.85753 14.4234 5.29545L15.8781 4.07099C15.088 3.13234 13.9895 2.70007 12.7145 2.70007V4.60152ZM14.4234 5.29545C14.8078 5.75219 15.069 6.48717 15.069 7.63938H16.9705C16.9705 6.22662 16.6523 4.99082 15.8781 4.07099L14.4234 5.29545ZM15.069 7.63938V8.2113H16.9705V7.63938H15.069ZM16.0198 7.26058H10.5754V9.16202H16.0198V7.26058ZM9.62495 8.23506C9.64922 9.20589 9.93778 10.0795 10.5591 10.7706L11.9732 9.49942C11.7131 9.21014 11.5411 8.80125 11.5258 8.18754L9.62495 8.23506ZM10.5659 10.7781C11.199 11.4675 12.0213 11.8137 12.9596 11.8137V9.91221C12.5313 9.91221 12.2245 9.77307 11.9664 9.49196L10.5659 10.7781ZM12.9596 11.8137C13.5737 11.8137 14.1603 11.6878 14.6746 11.3853L13.7106 9.74637C13.5514 9.83996 13.3161 9.91221 12.9596 9.91221V11.8137ZM14.6746 11.3853C15.1217 11.1223 15.5064 10.777 15.8288 10.3598L14.3242 9.19719C14.1414 9.43369 13.9369 9.6132 13.7106 9.74637L14.6746 11.3853ZM14.4923 10.5286L15.3316 11.1822L16.4999 9.68203L15.6606 9.02841L14.4923 10.5286ZM15.1189 9.9136C14.639 10.6511 13.9453 11.0338 12.8853 11.0338V12.9352C14.5191 12.9352 15.8457 12.283 16.7126 10.9507L15.1189 9.9136ZM12.7145 3.82905C11.8958 3.82905 11.1774 4.14202 10.6208 4.74257L12.0154 6.0351C12.2115 5.82358 12.4241 5.7305 12.7145 5.7305V3.82905ZM10.6248 4.73831C10.0708 5.32874 9.78183 6.10462 9.67627 6.96676L11.5636 7.19787C11.6363 6.60421 11.8128 6.25111 12.0115 6.03936L10.6248 4.73831ZM10.6199 8.03304H14.6457V6.13159H10.6199V8.03304ZM15.5964 7.08231V6.97833H13.6949V7.08231H15.5964ZM15.5949 6.92447C15.5476 6.0922 15.3163 5.32148 14.7938 4.7298L13.3686 5.98845C13.5195 6.15933 13.6645 6.46808 13.6965 7.03218L15.5949 6.92447ZM14.7978 4.73437C14.2575 4.11458 13.5265 3.82905 12.7145 3.82905V5.7305C13.0513 5.7305 13.2314 5.83121 13.3645 5.98388L14.7978 4.73437ZM19.481 1.85333H20.4317V0.902604H19.481V1.85333ZM19.481 3.79934H18.5303V4.75007H19.481V3.79934ZM20.9814 3.79934H21.9321V2.84862H20.9814V3.79934ZM20.9814 4.86148V5.81221H21.9321V4.86148H20.9814ZM19.481 4.86148V3.91076H18.5303V4.86148H19.481ZM19.6815 10.5733L18.9457 11.1753L18.9503 11.1809L18.9549 11.1864L19.6815 10.5733ZM21.0185 10.7218H21.9692V9.54577L20.8193 9.79219L21.0185 10.7218ZM21.0185 11.8359L21.2697 12.7529L21.9692 12.5612V11.8359H21.0185ZM18.1069 4.86148H19.0576V3.91076H18.1069V4.86148ZM16.6437 4.86148H15.693V5.81221H16.6437V4.86148ZM16.6437 3.79934V2.84862H15.693V3.79934H16.6437ZM18.1069 3.79934V4.75007H19.0576V3.79934H18.1069ZM18.1069 1.85333V0.902604H17.1562V1.85333H18.1069ZM18.5303 1.85333V3.79934H20.4317V1.85333H18.5303ZM19.481 4.75007H20.9814V2.84862H19.481V4.75007ZM20.0306 3.79934V4.86148H21.9321V3.79934H20.0306ZM20.9814 3.91076H19.481V5.81221H20.9814V3.91076ZM18.5303 4.86148V9.84536H20.4317V4.86148H18.5303ZM18.5303 9.84536C18.5303 10.2768 18.6166 10.773 18.9457 11.1753L20.4174 9.97122C20.449 10.0099 20.4526 10.0338 20.4477 10.0162C20.4422 9.9963 20.4317 9.94342 20.4317 9.84536H18.5303ZM18.9549 11.1864C19.3497 11.6543 19.9179 11.7617 20.3649 11.7617V9.86021C20.3228 9.86021 20.2941 9.85759 20.2768 9.85508C20.2594 9.85258 20.2567 9.85068 20.265 9.85356C20.2737 9.85659 20.2945 9.86492 20.3218 9.88286C20.3497 9.90124 20.3801 9.92685 20.4082 9.96016L18.9549 11.1864ZM20.3649 11.7617C20.6231 11.7617 20.9176 11.7157 21.2177 11.6514L20.8193 9.79219C20.5648 9.84672 20.4236 9.86021 20.3649 9.86021V11.7617ZM20.0678 10.7218V11.8359H21.9692V10.7218H20.0678ZM20.7673 10.919C20.4798 10.9978 20.2128 11.0338 19.9638 11.0338V12.9352C20.3981 12.9352 20.8342 12.8722 21.2697 12.7529L20.7673 10.919ZM19.9638 11.0338C19.5498 11.0338 19.3879 10.9172 19.3028 10.8159L17.8469 12.0389C18.3857 12.6804 19.1498 12.9352 19.9638 12.9352V11.0338ZM19.3028 10.8159C19.1837 10.6742 19.0576 10.3953 19.0576 9.84536H17.1562C17.1562 10.6621 17.342 11.4379 17.8469 12.0389L19.3028 10.8159ZM19.0576 9.84536V4.86148H17.1562V9.84536H19.0576ZM18.1069 3.91076H16.6437V5.81221H18.1069V3.91076ZM17.5944 4.86148V3.79934H15.693V4.86148H17.5944ZM16.6437 4.75007H18.1069V2.84862H16.6437V4.75007ZM19.0576 3.79934V1.85333H17.1562V3.79934H19.0576ZM18.1069 2.80405H19.481V0.902604H18.1069V2.80405ZM25.9949 7.01547L26.2592 6.1022L26.2576 6.10174L25.9949 7.01547ZM23.321 5.72307L22.6741 6.41979L22.6806 6.42571L23.321 5.72307ZM23.5067 1.71221L24.1085 2.44827L24.109 2.44779L23.5067 1.71221ZM28.1489 1.30369L27.7267 2.1555L27.7295 2.15692L28.1489 1.30369ZM29.5007 2.4921L28.6954 2.99741L28.699 3.00303L29.5007 2.4921ZM29.9835 4.14844V5.09916H30.9343V4.14844H29.9835ZM28.55 4.14844H27.5993V5.09916H28.55V4.14844ZM27.9261 2.61094L27.2882 3.31595L27.2929 3.32012L27.9261 2.61094ZM24.5169 2.51438L25.1038 3.26228L25.1051 3.2613L24.5169 2.51438ZM24.4872 4.9209L23.8813 5.65374L23.8921 5.66234L24.4872 4.9209ZM26.396 5.75279L26.1382 6.66788L26.1395 6.66825L26.396 5.75279ZM28.5054 6.5921L28.0116 7.40457L28.021 7.41013L28.5054 6.5921ZM29.6344 7.65423L28.8183 8.14193L28.8227 8.14919L29.6344 7.65423ZM28.9808 11.1972L29.56 11.9511L29.5634 11.9485L28.9808 11.1972ZM24.1603 11.5611L23.773 12.4294L23.7786 12.4318L24.1603 11.5611ZM22.6674 10.3876L21.8885 10.9328L21.8922 10.938L22.6674 10.3876ZM22.1475 8.70152V7.75079H21.1968V8.70152H22.1475ZM23.581 8.70152H24.5317V7.75079H23.581V8.70152ZM24.3015 10.2539L23.7103 10.9986L23.7188 11.0052L24.3015 10.2539ZM28.0152 7.87706L27.4274 8.62431L27.4336 8.62913L28.0152 7.87706ZM26.2576 6.10174C25.0915 5.76654 24.3632 5.38662 23.9615 5.02044L22.6806 6.42571C23.3979 7.07958 24.4523 7.56125 25.7323 7.92919L26.2576 6.10174ZM23.968 5.02639C23.6059 4.69017 23.4399 4.30826 23.4399 3.82163H21.5384C21.5384 4.84031 21.927 5.72603 22.6741 6.41976L23.968 5.02639ZM23.4399 3.82163C23.4399 3.2646 23.6436 2.82831 24.1085 2.44827L22.905 0.976146C22.0131 1.70528 21.5384 2.67527 21.5384 3.82163H23.4399ZM24.109 2.44779C24.5856 2.05752 25.2432 1.82362 26.1658 1.82362V-0.077831C24.9097 -0.077831 23.7945 0.247804 22.9044 0.976623L24.109 2.44779ZM26.1658 1.82362C26.7839 1.82362 27.2968 1.94241 27.7267 2.1555L28.5712 0.451886C27.8423 0.0905752 27.0332 -0.077831 26.1658 -0.077831V1.82362ZM27.7295 2.15692C28.1705 2.37364 28.4809 2.65552 28.6954 2.9974L30.3061 1.98679C29.8868 1.31853 29.296 0.808134 28.5683 0.450464L27.7295 2.15692ZM28.699 3.00303C28.9235 3.35538 29.0328 3.73022 29.0328 4.14844H30.9343C30.9343 3.36834 30.7217 2.63896 30.3025 1.98117L28.699 3.00303ZM29.9835 3.19771H28.55V5.09916H29.9835V3.19771ZM29.5007 4.14844C29.5007 3.2752 29.2126 2.48502 28.5593 1.90176L27.2929 3.32012C27.4715 3.47961 27.5993 3.71443 27.5993 4.14844H29.5007ZM28.564 1.90594C27.9197 1.32307 27.0754 1.09572 26.1658 1.09572V2.99717C26.7714 2.99717 27.1006 3.14615 27.2882 3.31593L28.564 1.90594ZM26.1658 1.09572C25.332 1.09572 24.5476 1.28007 23.9287 1.76746L25.1051 3.2613C25.2784 3.12477 25.5933 2.99717 26.1658 2.99717V1.09572ZM23.9299 1.76648C23.2828 2.27435 22.9794 2.99292 22.9794 3.79934H24.8808C24.8808 3.50649 24.9686 3.36842 25.1038 3.26228L23.9299 1.76648ZM22.9794 3.79934C22.9794 4.55227 23.3147 5.1852 23.8814 5.65366L25.0929 4.18814C24.9168 4.04259 24.8808 3.92782 24.8808 3.79934H22.9794ZM23.8921 5.66234C24.4227 6.08827 25.212 6.4069 26.1382 6.66788L26.6539 4.83769C25.7876 4.59359 25.3042 4.35763 25.0823 4.17946L23.8921 5.66234ZM26.1395 6.66825C26.9998 6.90932 27.6107 7.16078 28.0116 7.40451L28.9993 5.77968C28.3901 5.4094 27.5947 5.10133 26.6526 4.83732L26.1395 6.66825ZM28.021 7.41013C28.4286 7.65151 28.675 7.90214 28.8183 8.14191L30.4506 7.16656C30.1086 6.59425 29.6024 6.13679 28.9899 5.77407L28.021 7.41013ZM28.8227 8.14919C28.966 8.38416 29.0551 8.68506 29.0551 9.08775H30.9565C30.9565 8.39117 30.7981 7.73639 30.4462 7.15928L28.8227 8.14919ZM29.0551 9.08775C29.0551 9.675 28.8457 10.0989 28.3983 10.4458L29.5634 11.9485C30.4826 11.2357 30.9565 10.2534 30.9565 9.08775H29.0551ZM28.4017 10.4432C27.9316 10.8043 27.2429 11.0338 26.2401 11.0338V12.9352C27.5249 12.9352 28.6634 12.6398 29.56 11.9511L28.4017 10.4432ZM26.2401 11.0338C25.6211 11.0338 25.0587 10.9169 24.5421 10.6904L23.7786 12.4318C24.5494 12.7698 25.3735 12.9352 26.2401 12.9352V11.0338ZM24.5477 10.6929C24.0341 10.4637 23.6808 10.1726 23.4426 9.83717L21.8922 10.938C22.3572 11.5929 22.9992 12.0841 23.773 12.4293L24.5477 10.6929ZM23.4463 9.84236C23.2162 9.51373 23.0982 9.1437 23.0982 8.70152H21.1968C21.1968 9.51706 21.4254 10.2711 21.8885 10.9328L23.4463 9.84236ZM22.1475 9.65224H23.581V7.75079H22.1475V9.65224ZM22.6303 8.70152C22.6303 9.62321 22.9862 10.4236 23.7104 10.9985L24.8926 9.50924C24.6561 9.32156 24.5317 9.08707 24.5317 8.70152H22.6303ZM23.7188 11.0052C24.4166 11.5463 25.2884 11.7691 26.2401 11.7691V9.86764C25.5774 9.86764 25.1568 9.71409 24.8841 9.50259L23.7188 11.0052ZM26.2401 11.7691C27.1038 11.7691 27.9178 11.5956 28.5485 11.1128L27.3928 9.60291C27.2214 9.73413 26.8816 9.86764 26.2401 9.86764V11.7691ZM28.5485 11.1128C29.1977 10.6159 29.523 9.91152 29.523 9.1026H27.6216C27.6216 9.35335 27.5458 9.48582 27.3928 9.60291L28.5485 11.1128ZM29.523 9.1026C29.523 8.32157 29.2331 7.61705 28.5968 7.12499L27.4336 8.62913C27.5401 8.71146 27.6216 8.82398 27.6216 9.1026H29.523ZM28.6031 7.12983C28.0766 6.71572 27.2482 6.38836 26.2592 6.1022L25.7307 7.92873C26.6927 8.20707 27.2111 8.45411 27.4274 8.62429L28.6031 7.12983ZM33.4893 1.85333H34.4401V0.902604H33.4893V1.85333ZM33.4893 3.79934H32.5386V4.75007H33.4893V3.79934ZM34.9897 3.79934H35.9404V2.84862H34.9897V3.79934ZM34.9897 4.86148V5.81221H35.9404V4.86148H34.9897ZM33.4893 4.86148V3.91076H32.5386V4.86148H33.4893ZM33.6899 10.5733L32.9541 11.1753L32.9586 11.1809L32.9632 11.1864L33.6899 10.5733ZM35.0268 10.7218H35.9776V9.54577L34.8276 9.79219L35.0268 10.7218ZM35.0268 11.8359L35.278 12.7529L35.9776 12.5612V11.8359H35.0268ZM32.1152 4.86148H33.066V3.91076H32.1152V4.86148ZM30.652 4.86148H29.7013V5.81221H30.652V4.86148ZM30.652 3.79934V2.84862H29.7013V3.79934H30.652ZM32.1152 3.79934V4.75007H33.066V3.79934H32.1152ZM32.1152 1.85333V0.902604H31.1645V1.85333H32.1152ZM32.5386 1.85333V3.79934H34.4401V1.85333H32.5386ZM33.4893 4.75007H34.9897V2.84862H33.4893V4.75007ZM34.039 3.79934V4.86148H35.9404V3.79934H34.039ZM34.9897 3.91076H33.4893V5.81221H34.9897V3.91076ZM32.5386 4.86148V9.84536H34.4401V4.86148H32.5386ZM32.5386 9.84536C32.5386 10.2768 32.6249 10.773 32.9541 11.1753L34.4257 9.97122C34.4573 10.0099 34.4609 10.0338 34.456 10.0162C34.4506 9.9963 34.4401 9.94342 34.4401 9.84536H32.5386ZM32.9632 11.1864C33.358 11.6543 33.9262 11.7617 34.3732 11.7617V9.86021C34.3312 9.86021 34.3025 9.85759 34.2851 9.85508C34.2677 9.85258 34.265 9.85068 34.2733 9.85356C34.282 9.85659 34.3028 9.86492 34.3301 9.88286C34.3581 9.90124 34.3884 9.92685 34.4165 9.96016L32.9632 11.1864ZM34.3732 11.7617C34.6314 11.7617 34.9259 11.7157 35.226 11.6514L34.8276 9.79219C34.5732 9.84672 34.4319 9.86021 34.3732 9.86021V11.7617ZM34.0761 10.7218V11.8359H35.9776V10.7218H34.0761ZM34.7756 10.919C34.4881 10.9978 34.2211 11.0338 33.9721 11.0338V12.9352C34.4064 12.9352 34.8426 12.8722 35.278 12.7529L34.7756 10.919ZM33.9721 11.0338C33.5581 11.0338 33.3962 10.9172 33.3111 10.8159L31.8552 12.0389C32.394 12.6804 33.1581 12.9352 33.9721 12.9352V11.0338ZM33.3111 10.8159C33.1921 10.6742 33.066 10.3953 33.066 9.84536H31.1645C31.1645 10.6621 31.3503 11.4379 31.8552 12.0389L33.3111 10.8159ZM33.066 9.84536V4.86148H31.1645V9.84536H33.066ZM32.1152 3.91076H30.652V5.81221H32.1152V3.91076ZM31.6027 4.86148V3.79934H29.7013V4.86148H31.6027ZM30.652 4.75007H32.1152V2.84862H30.652V4.75007ZM33.066 3.79934V1.85333H31.1645V3.79934H33.066ZM32.1152 2.80405H33.4893V0.902604H32.1152V2.80405ZM36.5495 5.61909L35.6978 5.19659L35.6951 5.202L36.5495 5.61909ZM37.8419 4.16329L37.3432 3.35384L37.3399 3.35586L37.8419 4.16329ZM42.3875 4.78721L41.6769 5.41884L41.6792 5.42141L42.3875 4.78721ZM42.952 10.0162L42.0963 9.60191L42.0949 9.60478L42.952 10.0162ZM41.667 11.4646L41.1664 10.6563L41.1632 10.6583L41.667 11.4646ZM37.0991 10.8481L36.3885 11.4797L36.3908 11.4823L37.0991 10.8481ZM38.087 10.0533L37.3306 10.6293L37.3339 10.6337L38.087 10.0533ZM41.4145 10.0459L42.1734 10.6185L42.1759 10.6152L41.4145 10.0459ZM41.3997 5.60423L40.6415 6.17797L40.6474 6.18555L41.3997 5.60423ZM37.0397 7.74337C37.0397 7.08238 37.1678 6.51972 37.4038 6.03617L35.6951 5.202C35.3172 5.97619 35.1382 6.82971 35.1382 7.74337H37.0397ZM37.4012 6.04158C37.6415 5.55713 37.9569 5.21121 38.3438 4.97073L37.3399 3.35586C36.6275 3.79871 36.0814 4.42332 35.6978 5.1966L37.4012 6.04158ZM38.3405 4.97274C38.7322 4.73143 39.188 4.60152 39.7359 4.60152V2.70007C38.8676 2.70007 38.0607 2.91182 37.3432 3.35385L38.3405 4.97274ZM39.7359 4.60152C40.583 4.60152 41.1995 4.8817 41.6769 5.41883L43.0981 4.15558C42.2287 3.1775 41.0774 2.70007 39.7359 2.70007V4.60152ZM41.6792 5.42141C42.1668 5.96595 42.4544 6.72875 42.4544 7.81021H44.3558C44.3558 6.37622 43.965 5.12368 43.0958 4.153L41.6792 5.42141ZM42.4544 7.81021V7.90677H44.3558V7.81021H42.4544ZM42.4544 7.90677C42.4544 8.56422 42.3282 9.12289 42.0963 9.60192L43.8077 10.4305C44.1799 9.66167 44.3558 8.81406 44.3558 7.90677H42.4544ZM42.0949 9.60478C41.8728 10.0676 41.5648 10.4095 41.1664 10.6563L42.1677 12.2728C42.8883 11.8264 43.4371 11.2027 43.8091 10.4276L42.0949 9.60478ZM41.1632 10.6583C40.7753 10.9007 40.3149 11.0338 39.7507 11.0338V12.9352C40.6325 12.9352 41.4496 12.7216 42.1709 12.2708L41.1632 10.6583ZM39.7507 11.0338C38.91 11.0338 38.2914 10.7544 37.8074 10.2139L36.3908 11.4823C37.2635 12.4569 38.4127 12.9352 39.7507 12.9352V11.0338ZM37.8097 10.2164C37.3246 9.67068 37.0397 8.91102 37.0397 7.83992H35.1382C35.1382 9.26448 35.5268 10.5103 36.3885 11.4797L37.8097 10.2164ZM37.0397 7.83992V7.74337H35.1382V7.83992H37.0397ZM36.5198 7.90677C36.5198 8.94086 36.759 9.87866 37.3306 10.6293L38.8434 9.47736C38.593 9.14853 38.4212 8.6553 38.4212 7.90677H36.5198ZM37.3339 10.6337C37.9335 11.4117 38.7686 11.8137 39.7507 11.8137V9.91221C39.3464 9.91221 39.0723 9.77445 38.84 9.47299L37.3339 10.6337ZM39.7507 11.8137C40.7391 11.8137 41.5779 11.4078 42.1734 10.6185L40.6556 9.47326C40.4291 9.77342 40.1588 9.91221 39.7507 9.91221V11.8137ZM42.1759 10.6152C42.7531 9.84337 42.9817 8.84756 42.9817 7.74337H41.0803C41.0803 8.60994 40.8979 9.14915 40.6531 9.47656L42.1759 10.6152ZM42.9817 7.74337C42.9817 6.7112 42.7337 5.7758 42.1519 5.02292L40.6474 6.18555C40.9074 6.52204 41.0803 7.01272 41.0803 7.74337H42.9817ZM42.1578 5.03053C41.5609 4.24181 40.7249 3.82905 39.7359 3.82905V5.7305C40.1333 5.7305 40.4065 5.86738 40.6415 6.17794L42.1578 5.03053ZM39.7359 3.82905C38.7611 3.82905 37.9363 4.23697 37.3413 5.00904L38.8475 6.16971C39.0843 5.86232 39.3539 5.7305 39.7359 5.7305V3.82905ZM37.3413 5.00904C36.749 5.77766 36.5198 6.78737 36.5198 7.90677H38.4212C38.4212 7.01579 38.6079 6.48056 38.8475 6.16971L37.3413 5.00904ZM49.0129 5.03231L48.8566 5.9701L49.9636 6.15461V5.03231H49.0129ZM46.5024 6.13159L45.6256 5.76392L45.5516 5.94031V6.13159H46.5024ZM46.5024 11.8359V12.7867H47.4531V11.8359H46.5024ZM45.1283 11.8359H44.1776V12.7867H45.1283V11.8359ZM45.1283 3.79934V2.84862H44.1776V3.79934H45.1283ZM46.4652 3.79934L47.4157 3.77653L47.3934 2.84862H46.4652V3.79934ZM46.4875 4.72779L45.5371 4.7506L45.6129 7.90993L47.2928 5.23316L46.4875 4.72779ZM49.0129 3.75478H49.9636V3.1672L49.4381 2.90442L49.0129 3.75478ZM49.1692 4.09453C48.9025 4.05008 48.6243 4.0296 48.337 4.0296V5.93105C48.5349 5.93105 48.7073 5.94522 48.8566 5.9701L49.1692 4.09453ZM48.337 4.0296C47.7518 4.0296 47.1878 4.1549 46.6971 4.46284C46.201 4.77416 45.8503 5.22803 45.6256 5.76392L47.3791 6.49926C47.4763 6.26764 47.5923 6.14587 47.7078 6.07343C47.8286 5.99762 48.0209 5.93105 48.337 5.93105V4.0296ZM45.5516 6.13159V11.8359H47.4531V6.13159H45.5516ZM46.5024 10.8852H45.1283V12.7867H46.5024V10.8852ZM46.079 11.8359V3.79934H44.1776V11.8359H46.079ZM45.1283 4.75007H46.4652V2.84862H45.1283V4.75007ZM45.5148 3.82215L45.5371 4.7506L47.438 4.70497L47.4157 3.77653L45.5148 3.82215ZM47.2928 5.23316C47.5748 4.78383 47.9139 4.60152 48.4038 4.60152V2.70007C47.2399 2.70007 46.3015 3.23575 45.6822 4.22241L47.2928 5.23316ZM48.4038 4.60152C48.4988 4.60152 48.5609 4.60785 48.5966 4.61395C48.6343 4.62038 48.6243 4.62344 48.5877 4.60513L49.4381 2.90442C49.1041 2.73743 48.7263 2.70007 48.4038 2.70007V4.60152ZM48.0622 3.75478V5.03231H49.9636V3.75478H48.0622ZM53.046 9.82308L52.144 10.1234L53.0772 12.9266L53.9539 10.1052L53.046 9.82308ZM54.9178 3.79934V2.84862H54.2176L54.0099 3.51723L54.9178 3.79934ZM56.3884 3.79934L57.2863 4.11204L57.7263 2.84862H56.3884V3.79934ZM53.1574 13.0763L54.0479 13.4094L54.0517 13.3993L54.0553 13.389L53.1574 13.0763ZM50.7732 15.0818L50.692 16.029L50.7325 16.0325H50.7732V15.0818ZM50.5132 15.0595L50.3372 15.9938L50.3843 16.0026L50.432 16.0067L50.5132 15.0595ZM50.0007 14.9629H49.05V15.7513L49.8247 15.8972L50.0007 14.9629ZM50.0007 13.8488L50.0766 12.9011L49.05 12.819V13.8488H50.0007ZM50.3721 13.8785L50.2963 14.8262L50.3341 14.8292H50.3721V13.8785ZM51.4565 13.5963L50.9025 12.8236L50.8956 12.8287L51.4565 13.5963ZM52.1027 12.5638L51.2119 12.2318L51.2066 12.2461L51.2017 12.2605L52.1027 12.5638ZM52.4073 11.7468L53.2981 12.0789L53.4199 11.7522L53.3016 11.4242L52.4073 11.7468ZM49.5402 3.79934V2.84862H48.1866L48.6459 4.12196L49.5402 3.79934ZM51.0406 3.79934L51.9426 3.49903L51.7261 2.84862H51.0406V3.79934ZM53.9539 10.1052L55.8257 4.08145L54.0099 3.51723L52.1381 9.54096L53.9539 10.1052ZM54.9178 4.75007H56.3884V2.84862H54.9178V4.75007ZM55.4906 3.48665L52.2596 12.7636L54.0553 13.389L57.2863 4.11204L55.4906 3.48665ZM52.267 12.7432C52.0538 13.3132 51.8082 13.6561 51.5743 13.8528C51.3572 14.0355 51.1059 14.131 50.7732 14.131V16.0325C51.5299 16.0325 52.2207 15.7938 52.7983 15.308C53.3591 14.8363 53.761 14.1764 54.0479 13.4094L52.267 12.7432ZM50.8544 14.1345L50.5944 14.1122L50.432 16.0067L50.692 16.029L50.8544 14.1345ZM50.6893 14.1252L50.1768 14.0286L49.8247 15.8972L50.3372 15.9938L50.6893 14.1252ZM50.9515 14.9629V13.8488H49.05V14.9629H50.9515ZM49.9249 14.7965L50.2963 14.8262L50.4479 12.9308L50.0766 12.9011L49.9249 14.7965ZM50.3721 14.8292C50.9505 14.8292 51.5377 14.7144 52.0175 14.3639L50.8956 12.8287C50.8604 12.8544 50.7247 12.9278 50.3721 12.9278V14.8292ZM52.0105 14.3689C52.5087 14.0117 52.8087 13.4468 53.0038 12.8672L51.2017 12.2605C51.0601 12.6811 50.9292 12.8045 50.9026 12.8236L52.0105 14.3689ZM52.9936 12.8959L53.2981 12.0789L51.5164 11.4148L51.2119 12.2318L52.9936 12.8959ZM53.3016 11.4242L50.4345 3.47672L48.6459 4.12196L51.513 12.0694L53.3016 11.4242ZM49.5402 4.75007H51.0406V2.84862H49.5402V4.75007ZM50.1385 4.09966L52.144 10.1234L53.9481 9.52276L51.9426 3.49903L50.1385 4.09966ZM8.47339 23.6191L7.62168 23.1966L7.61903 23.202L8.47339 23.6191ZM9.76578 22.1633L9.2671 21.3538L9.26386 21.3559L9.76578 22.1633ZM14.3114 22.7872L13.6008 23.4188L13.6032 23.4214L14.3114 22.7872ZM14.8759 28.0162L14.0202 27.6019L14.0188 27.6048L14.8759 28.0162ZM13.591 29.4646L13.0903 28.6563L13.0871 28.6583L13.591 29.4646ZM9.02302 28.8481L8.31244 29.4797L8.31475 29.4823L9.02302 28.8481ZM10.0109 28.0533L9.25448 28.6293L9.25783 28.6337L10.0109 28.0533ZM13.3384 28.0459L14.0974 28.6185L14.0998 28.6152L13.3384 28.0459ZM13.3236 23.6042L12.5654 24.178L12.5713 24.1856L13.3236 23.6042ZM8.9636 25.7434C8.9636 25.0824 9.09168 24.5197 9.32774 24.0362L7.61903 23.202C7.24108 23.9762 7.06215 24.8297 7.06215 25.7434H8.9636ZM9.32508 24.0416C9.56539 23.5571 9.88083 23.2112 10.2677 22.9707L9.26386 21.3559C8.55145 21.7987 8.00529 22.4233 7.6217 23.1966L9.32508 24.0416ZM10.2645 22.9727C10.6561 22.7314 11.1119 22.6015 11.6598 22.6015V20.7001C10.7915 20.7001 9.9846 20.9118 9.2671 21.3538L10.2645 22.9727ZM11.6598 22.6015C12.5069 22.6015 13.1234 22.8817 13.6008 23.4188L15.022 22.1556C14.1526 21.1775 13.0014 20.7001 11.6598 20.7001V22.6015ZM13.6032 23.4214C14.0907 23.966 14.3783 24.7287 14.3783 25.8102H16.2797C16.2797 24.3762 15.8889 23.1237 15.0197 22.153L13.6032 23.4214ZM14.3783 25.8102V25.9068H16.2797V25.8102H14.3783ZM14.3783 25.9068C14.3783 26.5642 14.2521 27.1229 14.0202 27.6019L15.7316 28.4305C16.1038 27.6617 16.2797 26.8141 16.2797 25.9068H14.3783ZM14.0188 27.6048C13.7967 28.0676 13.4887 28.4095 13.0903 28.6563L14.0916 30.2728C14.8123 29.8264 15.361 29.2027 15.733 28.4276L14.0188 27.6048ZM13.0871 28.6583C12.6992 28.9007 12.2388 29.0338 11.6747 29.0338V30.9352C12.5564 30.9352 13.3735 30.7216 14.0948 30.2708L13.0871 28.6583ZM11.6747 29.0338C10.8339 29.0338 10.2153 28.7544 9.7313 28.2139L8.31475 29.4823C9.18746 30.4569 10.3366 30.9352 11.6747 30.9352V29.0338ZM9.7336 28.2164C9.24848 27.6707 8.9636 26.911 8.9636 25.8399H7.06215C7.06215 27.2645 7.45071 28.5103 8.31244 29.4797L9.7336 28.2164ZM8.9636 25.8399V25.7434H7.06215V25.8399H8.9636ZM8.44368 25.9068C8.44368 26.9409 8.6829 27.8787 9.25449 28.6293L10.7673 27.4774C10.5169 27.1485 10.3451 26.6553 10.3451 25.9068H8.44368ZM9.25783 28.6337C9.8574 29.4117 10.6925 29.8137 11.6747 29.8137V27.9122C11.2703 27.9122 10.9963 27.7744 10.7639 27.473L9.25783 28.6337ZM11.6747 29.8137C12.663 29.8137 13.5018 29.4078 14.0973 28.6185L12.5795 27.4733C12.353 27.7734 12.0827 27.9122 11.6747 27.9122V29.8137ZM14.0998 28.6152C14.677 27.8434 14.9056 26.8476 14.9056 25.7434H13.0042C13.0042 26.6099 12.8218 27.1492 12.577 27.4766L14.0998 28.6152ZM14.9056 25.7434C14.9056 24.7112 14.6576 23.7758 14.0759 23.0229L12.5713 24.1856C12.8313 24.522 13.0042 25.0127 13.0042 25.7434H14.9056ZM14.0817 23.0305C13.4848 22.2418 12.6488 21.8291 11.6598 21.8291V23.7305C12.0572 23.7305 12.3304 23.8674 12.5655 24.1779L14.0817 23.0305ZM11.6598 21.8291C10.685 21.8291 9.86025 22.237 9.26526 23.009L10.7714 24.1697C11.0083 23.8623 11.2778 23.7305 11.6598 23.7305V21.8291ZM9.26526 23.009C8.67293 23.7777 8.44368 24.7874 8.44368 25.9068H10.3451C10.3451 25.0158 10.5318 24.4806 10.7714 24.1697L9.26526 23.009ZM18.352 21.7993L19.3018 21.7574L19.2617 20.8486H18.352V21.7993ZM18.3966 22.8095L17.4468 22.8514L17.5588 25.3913L19.1408 23.4011L18.3966 22.8095ZM23.373 24.5252H24.3238L24.3237 24.5179L23.373 24.5252ZM23.373 29.8359V30.7867H24.3237V29.8359H23.373ZM21.9989 29.8359H21.0482V30.7867H21.9989V29.8359ZM21.9989 24.5178H22.9497L22.9496 24.5097L21.9989 24.5178ZM21.5978 23.2329L20.9011 23.8798L20.9073 23.8864L21.5978 23.2329ZM18.4263 24.1093L17.5716 23.6929L17.4756 23.89V24.1093H18.4263ZM18.4263 29.8359V30.7867H19.377V29.8359H18.4263ZM17.0522 29.8359H16.1015V30.7867H17.0522V29.8359ZM17.0522 21.7993V20.8486H16.1015V21.7993H17.0522ZM17.4022 21.8412L17.4468 22.8514L19.3464 22.7676L19.3018 21.7574L17.4022 21.8412ZM19.1408 23.4011C19.5737 22.8565 20.1014 22.6015 20.8031 22.6015V20.7001C19.5241 20.7001 18.4475 21.2176 17.6523 22.2179L19.1408 23.4011ZM20.8031 22.6015C21.4735 22.6015 21.816 22.7853 22.0106 23.0031C22.2244 23.2422 22.4158 23.6953 22.4223 24.5326L24.3237 24.5179C24.3154 23.4389 24.071 22.4548 23.4282 21.7357C22.7662 20.9953 21.8311 20.7001 20.8031 20.7001V22.6015ZM22.4223 24.5252V29.8359H24.3237V24.5252H22.4223ZM23.373 28.8852H21.9989V30.7867H23.373V28.8852ZM22.9497 29.8359V24.5178H21.0482V29.8359H22.9497ZM22.9496 24.5097C22.9436 23.8111 22.7837 23.1027 22.2883 22.5793L20.9073 23.8864C20.9369 23.9176 21.0443 24.0659 21.0482 24.5259L22.9496 24.5097ZM22.2945 22.5859C21.7886 22.0411 21.08 21.8662 20.3872 21.8662V23.7676C20.7935 23.7676 20.8921 23.87 20.9012 23.8798L22.2945 22.5859ZM20.3872 21.8662C19.762 21.8662 19.1757 22.0365 18.6653 22.3967L19.7619 23.9501C19.925 23.835 20.121 23.7676 20.3872 23.7676V21.8662ZM18.6653 22.3967C18.1921 22.7308 17.8268 23.169 17.5716 23.6929L19.281 24.5257C19.4021 24.2771 19.5617 24.0915 19.7619 23.9501L18.6653 22.3967ZM17.4756 24.1093V29.8359H19.377V24.1093H17.4756ZM18.4263 28.8852H17.0522V30.7867H18.4263V28.8852ZM18.0029 29.8359V21.7993H16.1015V29.8359H18.0029ZM17.0522 22.7501H18.352V20.8486H17.0522V22.7501ZM26.9382 29.8359V30.7867H27.889V29.8359H26.9382ZM25.5641 29.8359H24.6134V30.7867H25.5641V29.8359ZM25.5641 18.4272V17.4765H24.6134V18.4272H25.5641ZM26.9382 18.4272H27.889V17.4765H26.9382V18.4272ZM26.9382 28.8852H25.5641V30.7867H26.9382V28.8852ZM26.5149 29.8359V18.4272H24.6134V29.8359H26.5149ZM25.5641 19.378H26.9382V17.4765H25.5641V19.378ZM25.9875 18.4272V29.8359H27.889V18.4272H25.9875ZM30.6372 29.8359V30.7867H31.5879V29.8359H30.6372ZM29.2631 29.8359H28.3123V30.7867H29.2631V29.8359ZM29.2631 21.7993V20.8486H28.3123V21.7993H29.2631ZM30.6372 21.7993H31.5879V20.8486H30.6372V21.7993ZM29.3522 19.1031L28.6467 18.4659L28.6409 18.4723L28.6353 18.4787L29.3522 19.1031ZM29.3522 20.2247L28.6455 20.8607L28.6513 20.8671L28.6572 20.8734L29.3522 20.2247ZM30.6372 28.8852H29.2631V30.7867H30.6372V28.8852ZM30.2138 29.8359V21.7993H28.3123V29.8359H30.2138ZM29.2631 22.7501H30.6372V20.8486H29.2631V22.7501ZM29.6864 21.7993V29.8359H31.5879V21.7993H29.6864ZM30.1024 19.6676C30.1024 19.6522 30.1045 19.6584 30.0977 19.6777C30.0944 19.6868 30.09 19.6965 30.0844 19.706C30.0788 19.7155 30.0733 19.7227 30.0691 19.7276L28.6353 18.4787C28.3361 18.8222 28.2009 19.2387 28.2009 19.6676H30.1024ZM30.0577 19.7404C30.0409 19.7591 30.0211 19.7763 29.9996 19.7908C29.9782 19.8052 29.9589 19.8144 29.9446 19.8198C29.917 19.8302 29.9167 19.8236 29.9612 19.8236V17.9222C29.5085 17.9222 29.0149 18.0582 28.6467 18.4659L30.0577 19.7404ZM29.9612 19.8236C30.0058 19.8236 30.0055 19.8302 29.9779 19.8198C29.9636 19.8144 29.9443 19.8052 29.9229 19.7908C29.9014 19.7763 29.8816 19.7591 29.8648 19.7404L31.2758 18.4659C30.9076 18.0582 30.414 17.9222 29.9612 17.9222V19.8236ZM29.8648 19.7404C29.8609 19.7361 29.8552 19.729 29.8492 19.7191C29.8431 19.7092 29.838 19.6985 29.8342 19.6881C29.826 19.6659 29.8276 19.656 29.8276 19.6676H31.729C31.729 19.2292 31.5851 18.8083 31.2758 18.4659L29.8648 19.7404ZM29.8276 19.6676C29.8276 19.6795 29.8259 19.6674 29.8356 19.6415C29.8458 19.6141 29.8614 19.5909 29.8753 19.576L31.2653 20.8734C31.5848 20.5311 31.729 20.106 31.729 19.6676H29.8276ZM29.8753 19.576C29.8932 19.5568 29.9135 19.5398 29.9349 19.5259C29.9561 19.5121 29.9745 19.5037 29.9874 19.499C30.012 19.49 30.0089 19.4968 29.9612 19.4968V21.3983C30.4048 21.3983 30.8949 21.2703 31.2653 20.8734L29.8753 19.576ZM29.9612 19.4968C29.9136 19.4968 29.9105 19.49 29.9351 19.499C29.948 19.5037 29.9664 19.5121 29.9876 19.5259C30.009 19.5398 30.0293 19.5568 30.0472 19.576L28.6572 20.8734C29.0276 21.2703 29.5177 21.3983 29.9612 21.3983V19.4968ZM30.0589 19.5887C30.0733 19.6047 30.0875 19.6275 30.0963 19.652C30.1045 19.6749 30.1024 19.6833 30.1024 19.6676H28.2009C28.2009 20.0963 28.3363 20.5171 28.6455 20.8607L30.0589 19.5887ZM34.1429 21.7993L35.0928 21.7574L35.0527 20.8486H34.1429V21.7993ZM34.1875 22.8095L33.2377 22.8514L33.3498 25.3913L34.9318 23.4011L34.1875 22.8095ZM39.164 24.5252H40.1147L40.1147 24.5179L39.164 24.5252ZM39.164 29.8359V30.7867H40.1147V29.8359H39.164ZM37.7899 29.8359H36.8391V30.7867H37.7899V29.8359ZM37.7899 24.5178H38.7406L38.7406 24.5097L37.7899 24.5178ZM37.3888 23.2329L36.6921 23.8798L36.6983 23.8864L37.3888 23.2329ZM34.2172 24.1093L33.3625 23.6929L33.2665 23.89V24.1093H34.2172ZM34.2172 29.8359V30.7867H35.1679V29.8359H34.2172ZM32.8431 29.8359H31.8924V30.7867H32.8431V29.8359ZM32.8431 21.7993V20.8486H31.8924V21.7993H32.8431ZM33.1931 21.8412L33.2377 22.8514L35.1373 22.7676L35.0928 21.7574L33.1931 21.8412ZM34.9318 23.4011C35.3646 22.8565 35.8923 22.6015 36.594 22.6015V20.7001C35.3151 20.7001 34.2384 21.2176 33.4433 22.2179L34.9318 23.4011ZM36.594 22.6015C37.2644 22.6015 37.6069 22.7853 37.8016 23.0031C38.0154 23.2422 38.2068 23.6953 38.2133 24.5326L40.1147 24.5179C40.1063 23.4389 39.862 22.4548 39.2191 21.7357C38.5571 20.9953 37.6221 20.7001 36.594 20.7001V22.6015ZM38.2132 24.5252V29.8359H40.1147V24.5252H38.2132ZM39.164 28.8852H37.7899V30.7867H39.164V28.8852ZM38.7406 29.8359V24.5178H36.8391V29.8359H38.7406ZM38.7406 24.5097C38.7346 23.8111 38.5746 23.1027 38.0793 22.5793L36.6983 23.8864C36.7278 23.9176 36.8352 24.0659 36.8392 24.5259L38.7406 24.5097ZM38.0855 22.5859C37.5796 22.0411 36.871 21.8662 36.1781 21.8662V23.7676C36.5845 23.7676 36.683 23.87 36.6921 23.8798L38.0855 22.5859ZM36.1781 21.8662C35.5529 21.8662 34.9666 22.0365 34.4563 22.3967L35.5528 23.9501C35.7159 23.835 35.912 23.7676 36.1781 23.7676V21.8662ZM34.4563 22.3967C33.9831 22.7308 33.6178 23.169 33.3625 23.6929L35.0719 24.5257C35.193 24.2771 35.3526 24.0915 35.5528 23.9501L34.4563 22.3967ZM33.2665 24.1093V29.8359H35.1679V24.1093H33.2665ZM34.2172 28.8852H32.8431V30.7867H34.2172V28.8852ZM33.7939 29.8359V21.7993H31.8924V29.8359H33.7939ZM32.8431 22.7501H34.1429V20.8486H32.8431V22.7501ZM41.9122 28.9149L41.2235 29.5704L41.2257 29.5727L41.9122 28.9149ZM41.3402 23.6562L40.4859 23.2391L40.4845 23.242L41.3402 23.6562ZM42.6178 22.1856L43.1334 22.9844L43.1351 22.9832L42.6178 22.1856ZM46.8366 22.6832L46.1093 23.2955L46.8366 22.6832ZM47.7056 26.2113V27.162H48.6564V26.2113H47.7056ZM42.2612 26.2113V25.2606H41.2865L41.3108 26.2351L42.2612 26.2113ZM42.952 28.135L42.2449 28.7707L42.2518 28.7781L42.952 28.135ZM46.7623 27.7785L47.3465 27.0284L46.5936 26.4421L46.01 27.1972L46.7623 27.7785ZM47.6017 28.4321L48.3985 28.9507L48.8749 28.2186L48.1858 27.682L47.6017 28.4321ZM43.004 23.3888L43.6973 24.0394L43.7013 24.0351L43.004 23.3888ZM42.3058 25.0823L41.3621 24.9668L41.2316 26.033H42.3058V25.0823ZM46.3315 25.0823V26.033H47.2823V25.0823H46.3315ZM46.3315 24.9783H47.2823V24.9514L47.2807 24.9245L46.3315 24.9783ZM45.767 23.3591L45.0504 23.9839L45.0544 23.9885L45.767 23.3591ZM44.5712 29.0338C43.7115 29.0338 43.0831 28.7628 42.5986 28.2571L41.2257 29.5727C42.1078 30.4932 43.2522 30.9352 44.5712 30.9352V29.0338ZM42.6008 28.2595C42.1196 27.7539 41.8379 27.0488 41.8379 26.0405H39.9364C39.9364 27.4288 40.338 28.64 41.2235 29.5704L42.6008 28.2595ZM41.8379 26.0405V25.7879H39.9364V26.0405H41.8379ZM41.8379 25.7879C41.8379 25.1127 41.9652 24.5472 42.196 24.0705L40.4845 23.242C40.1112 24.0131 39.9364 24.8688 39.9364 25.7879H41.8379ZM42.1946 24.0733C42.4318 23.5873 42.7458 23.2345 43.1334 22.9844L42.1022 21.3868C41.4004 21.8398 40.8627 22.4674 40.4859 23.2391L42.1946 24.0733ZM43.1351 22.9832C43.5349 22.7239 43.9502 22.6015 44.4004 22.6015V20.7001C43.5731 20.7001 42.7999 20.9342 42.1004 21.388L43.1351 22.9832ZM44.4004 22.6015C45.215 22.6015 45.7406 22.8575 46.1093 23.2955L47.564 22.071C46.7739 21.1323 45.6754 20.7001 44.4004 20.7001V22.6015ZM46.1093 23.2955C46.4937 23.7522 46.7549 24.4872 46.7549 25.6394H48.6564C48.6564 24.2266 48.3382 22.9908 47.564 22.071L46.1093 23.2955ZM46.7549 25.6394V26.2113H48.6564V25.6394H46.7549ZM47.7056 25.2606H42.2612V27.162H47.7056V25.2606ZM41.3108 26.2351C41.3351 27.2059 41.6237 28.0795 42.245 28.7706L43.659 27.4994C43.399 27.2101 43.227 26.8013 43.2117 26.1875L41.3108 26.2351ZM42.2518 28.7781C42.8849 29.4675 43.7072 29.8137 44.6455 29.8137V27.9122C44.2172 27.9122 43.9104 27.7731 43.6522 27.492L42.2518 28.7781ZM44.6455 29.8137C45.2595 29.8137 45.8462 29.6878 46.3605 29.3853L45.3964 27.7464C45.2373 27.84 45.002 27.9122 44.6455 27.9122V29.8137ZM46.3605 29.3853C46.8075 29.1223 47.1923 28.777 47.5146 28.3598L46.01 27.1972C45.8273 27.4337 45.6228 27.6132 45.3964 27.7464L46.3605 29.3853ZM46.1782 28.5286L47.0175 29.1822L48.1858 27.682L47.3465 27.0284L46.1782 28.5286ZM46.8048 27.9136C46.3249 28.6511 45.6311 29.0338 44.5712 29.0338V30.9352C46.205 30.9352 47.5315 30.283 48.3985 28.9507L46.8048 27.9136ZM44.4004 21.8291C43.5816 21.8291 42.8633 22.142 42.3067 22.7426L43.7013 24.0351C43.8973 23.8236 44.1099 23.7305 44.4004 23.7305V21.8291ZM42.3107 22.7383C41.7567 23.3287 41.4677 24.1046 41.3621 24.9668L43.2495 25.1979C43.3222 24.6042 43.4986 24.2511 43.6973 24.0394L42.3107 22.7383ZM42.3058 26.033H46.3315V24.1316H42.3058V26.033ZM47.2823 25.0823V24.9783H45.3808V25.0823H47.2823ZM47.2807 24.9245C47.2335 24.0922 47.0022 23.3215 46.4797 22.7298L45.0544 23.9885C45.2053 24.1593 45.3503 24.4681 45.3823 25.0322L47.2807 24.9245ZM46.4837 22.7344C45.9434 22.1146 45.2124 21.8291 44.4004 21.8291V23.7305C44.7372 23.7305 44.9173 23.8312 45.0504 23.9839L46.4837 22.7344Z" fill="#FE9013"/>
</svg>
